<?xml version="1.0" encoding="UTF-8"?>
<svg width="24px" height="28px" viewBox="0 0 24 28" version="1.1" xmlns="http://www.w3.org/2000/svg" xmlns:xlink="http://www.w3.org/1999/xlink">
    <!-- Generator: Sketch 52.3 (67297) - http://www.bohemiancoding.com/sketch -->
    <title>a-values-1</title>
    <desc>Created with Sketch.</desc>
    <g id="Page-1" stroke="none" stroke-width="1" fill="none" fill-rule="evenodd">
        <g id="About-Us" transform="translate(-1052.000000, -2609.000000)" fill="#FFFFFF" fill-rule="nonzero">
            <g id="Group-26" transform="translate(0.000000, 2159.000000)">
                <g id="1_2" transform="translate(1029.000000, 429.000000)">
                    <g id="icon-copy">
                        <g id="Group-2" transform="translate(23.000000, 21.000000)">
                            <path d="M21.0278638,0 L6.98452012,0 C5.3498452,0 4.0123839,1.38842975 4.0123839,3.08539945 L4.0123839,4.12672176 L2.97213622,4.12672176 C1.3374613,4.12672176 0,5.51515152 0,7.21212121 L0,24.9146006 C0,26.6115702 1.3374613,28 2.97213622,28 L17.0154799,28 C18.6501548,28 19.9876161,26.6115702 19.9876161,24.9146006 L19.9876161,23.8732782 L21.0278638,23.8732782 C22.6625387,23.8732782 24,22.4848485 24,20.7878788 L24,3.08539945 C24,1.38842975 22.6625387,0 21.0278638,0 Z M17.7585139,24.9146006 C17.7585139,25.338843 17.4241486,25.6859504 17.0154799,25.6859504 L2.97213622,25.6859504 C2.56346749,25.6859504 2.22910217,25.338843 2.22910217,24.9146006 L2.22910217,7.21212121 C2.22910217,6.78787879 2.56346749,6.44077135 2.97213622,6.44077135 L4.0123839,6.44077135 L4.0123839,20.7878788 C4.0123839,22.4848485 5.3498452,23.8732782 6.98452012,23.8732782 L17.7585139,23.8732782 L17.7585139,24.9146006 Z M18.873065,8.64554637 C19.4674923,8.68411387 19.9504644,9.18549128 19.9876161,9.80257117 C19.9876161,10.4582185 19.504644,10.959596 18.873065,10.959596 L9.54798762,10.959596 C8.91640867,10.959596 8.43343653,10.4582185 8.43343653,9.80257117 C8.47058824,9.18549128 8.95356037,8.68411387 9.54798762,8.64554637 L18.873065,8.64554637 Z M18.873065,13.5821855 C19.4674923,13.620753 19.9504644,14.1221304 19.9876161,14.7392103 C19.9876161,15.3948577 19.504644,15.8962351 18.873065,15.8962351 L9.54798762,15.8962351 C8.91640867,15.8962351 8.43343653,15.3948577 8.43343653,14.7392103 C8.47058824,14.1221304 8.95356037,13.620753 9.54798762,13.5821855 L18.873065,13.5821855 Z" id="a-values-1"></path>
                        </g>
                    </g>
                </g>
            </g>
        </g>
    </g>
</svg>