<?xml version="1.0" encoding="UTF-8"?>
<svg width="28px" height="21px" viewBox="0 0 28 21" version="1.1" xmlns="http://www.w3.org/2000/svg" xmlns:xlink="http://www.w3.org/1999/xlink">
    <!-- Generator: Sketch 52.3 (67297) - http://www.bohemiancoding.com/sketch -->
    <title>a-values-0</title>
    <desc>Created with Sketch.</desc>
    <g id="Page-1" stroke="none" stroke-width="1" fill="none" fill-rule="evenodd">
        <g id="About-Us" transform="translate(-1050.000000, -2464.000000)" fill="#FFFFFF" fill-rule="nonzero">
            <g id="Group-26" transform="translate(0.000000, 2159.000000)">
                <g id="1_2" transform="translate(1029.000000, 280.000000)">
                    <g id="icon">
                        <path d="M36.088141,25 C36.088141,25 29.2037021,28.6804266 29.1891026,28.6911844 C29.0103649,28.8230549 28.8974359,29.034704 28.8974359,29.2817739 C28.8974359,29.6918611 29.2103553,30.0086533 29.6153846,30.0086533 C29.6758345,30.0086533 35.1009615,27.8734451 35.1009615,27.8734451 C35.3687715,27.7715657 35.6943932,27.8516278 35.8862179,28.0665224 L45.4214744,38.7198486 C45.6139873,38.6240095 45.794658,38.4754172 45.9935897,38.4359113 C46.3836218,38.3586804 46.7548591,38.3677664 47.2051282,38.3677664 L49,38.3677664 L49,28.5548945 L43.7275641,28.5548945 C43.6233176,28.5548 43.5191536,28.5313655 43.4246795,28.4867496 L36.088141,25 Z M21,28.5548945 L21,38.3677664 L23.0416667,38.3677664 C23.4490634,37.514628 24.3155191,36.9140076 25.3076923,36.9140076 C25.7678142,36.9140076 26.200827,37.0420292 26.5753205,37.2660898 C26.6550685,37.3138094 34.2415475,43.5775472 34.2932692,43.6262845 C34.9021242,44.2000104 35.1162029,45.0818423 34.8878205,45.8637101 C35.0548782,45.9785571 35.1905755,46 35.3589744,46 C36.0930895,46 38.1901017,45.4455001 40.2163462,44.6825311 C42.2425906,43.9195985 45.3906062,42.1828837 45.4326923,42.1498107 C45.6628545,41.9684543 45.8734198,41.6927308 45.6794872,41.252569 C45.6211854,41.1202406 35.1570513,29.4067063 35.1570513,29.4067063 C35.1570513,29.4067063 30.221721,31.3727697 30.1987179,31.3829097 C30.013905,31.4351178 29.8161959,31.4624121 29.6153846,31.4624121 C28.4343654,31.4624121 27.4615385,30.4775087 27.4615385,29.2817739 C27.4615385,29.0183492 27.5778619,28.7899746 27.6634615,28.5548945 L21,28.5548945 Z M25.2740385,38.3677664 C24.6857994,38.3869923 24.2307692,38.8579011 24.2307692,39.4580855 C24.2307692,39.7459297 24.3337787,39.9905973 24.5112179,40.1849648 C24.5138205,40.1871455 32.3264308,45.8373607 32.3301282,45.8409951 C32.6756267,46.0963115 33.1433674,46.0222607 33.4070513,45.6706328 C33.6661873,45.325038 33.5986241,44.8833497 33.25,44.6257436 C30.7935937,42.6467418 28.4218437,40.5443522 25.9471154,38.5835587 C25.7871866,38.4568273 25.5306976,38.3594072 25.2740385,38.3677664 Z" id="a-values-0"></path>
                    </g>
                </g>
            </g>
        </g>
    </g>
</svg>